<svg width="245" height="52" viewBox="0 0 245 52" fill="none" xmlns="http://www.w3.org/2000/svg">
<path d="M95.0503 17.1422H99.4316L94.7576 34.2428H90.0389L87.0066 22.6602L84.2699 34.2428H79.636L74.9619 17.1422H79.3433L81.9953 30.5344L85.1955 17.1422H89.0688L92.3968 30.5344L95.0503 17.1422ZM114.931 30.0724V33.3142C114.339 33.6515 113.414 33.9472 112.191 34.1997C110.968 34.4523 109.664 34.5801 108.318 34.5801C105.581 34.5801 103.644 33.8639 102.465 32.4733C101.244 31.0826 100.654 28.8081 100.654 25.6078C100.654 22.5354 101.284 20.3038 102.549 18.9132C103.77 17.4795 105.749 16.7648 108.445 16.7648C111.097 16.7648 112.909 17.3116 114.002 18.4066C115.098 19.5016 115.644 21.3542 115.644 24.0092C115.644 24.4728 115.644 24.9348 115.604 25.3151C115.604 25.7356 115.519 26.2823 115.476 26.9984H104.736C104.736 28.4321 105.073 29.4424 105.664 30.0308C106.294 30.6191 107.391 30.8747 108.949 30.8747C110.002 30.8747 111.053 30.8316 112.191 30.6622C113.287 30.4943 114.213 30.2819 114.931 30.0724ZM108.444 20.3024C107.053 20.3024 106.085 20.5549 105.536 21.1016C104.988 21.69 104.736 22.6602 104.736 24.1325H111.981V23.4193C111.938 22.2382 111.686 21.3973 111.181 20.9754C110.676 20.5118 109.747 20.3024 108.444 20.3024ZM122.677 34.5801C120.911 34.5801 119.645 34.115 118.804 33.2741C118.003 32.3886 117.583 31.0425 117.583 29.1884C117.583 27.2941 118.088 25.945 119.056 25.1873C120.025 24.388 121.708 24.0092 124.152 24.0092C124.785 24.0092 125.498 24.0493 126.174 24.0939C126.888 24.1786 127.477 24.2618 127.986 24.3881V22.9142C127.986 22.0302 127.69 21.3557 127.142 20.9338C126.596 20.5133 125.711 20.3038 124.533 20.3038C123.436 20.3038 122.469 20.3439 121.625 20.4286C120.784 20.5133 119.984 20.5965 119.226 20.7659V17.3963C120.111 17.1868 121.037 17.059 122.09 16.9328C123.101 16.8481 124.322 16.7648 125.712 16.7648C127.819 16.7648 129.418 17.2714 130.428 18.2386C131.481 19.1657 131.988 20.6396 131.988 22.5354V34.2443H128.281L128.113 32.7274H128.073C127.313 33.2756 126.472 33.7377 125.503 34.0764C124.531 34.4107 123.603 34.5801 122.677 34.5801ZM124.616 26.8722C123.35 26.8722 122.509 26.9969 122.046 27.2926C121.584 27.5853 121.373 28.1336 121.373 28.9344C121.373 29.7352 121.541 30.2804 121.921 30.6177C122.298 30.9579 122.974 31.1257 123.9 31.1257C124.573 31.1257 125.29 31.0411 126.007 30.8301C126.764 30.6622 127.437 30.4097 127.986 30.114V27.1664C127.437 27.0416 126.889 26.9985 126.344 26.9569C125.794 26.9123 125.206 26.8722 124.616 26.8722ZM146.26 17.1422H150.641L144.409 34.2428H139.818L133.542 17.1422H137.965L142.134 30.5775L146.26 17.1422ZM165.76 30.0724V33.3142C165.172 33.6515 164.286 33.9472 163.023 34.1997C161.802 34.4523 160.539 34.5801 159.19 34.5801C156.453 34.5801 154.474 33.8639 153.293 32.4733C152.115 31.0826 151.527 28.8081 151.527 25.6078C151.527 22.5354 152.157 20.3038 153.378 18.9132C154.644 17.4795 156.623 16.7648 159.318 16.7648C161.927 16.7648 163.781 17.3116 164.874 18.4066C165.971 19.5016 166.476 21.3542 166.476 24.0092C166.476 24.4728 166.476 24.9348 166.476 25.3151C166.433 25.7356 166.391 26.2823 166.308 26.9984H155.568C155.608 28.4321 155.905 29.4424 156.537 30.0308C157.125 30.6191 158.22 30.8747 159.821 30.8747C160.832 30.8747 161.925 30.8316 163.022 30.6622C164.118 30.4943 165.044 30.2819 165.76 30.0724ZM159.319 20.3024C157.929 20.3024 156.917 20.5549 156.372 21.1016C155.866 21.69 155.571 22.6602 155.571 24.1325H162.814V23.4193C162.814 22.2382 162.521 21.3973 162.013 20.9754C161.506 20.5118 160.624 20.3024 159.319 20.3024ZM181.892 29.9045V33.2741C181.303 33.6514 180.375 33.9472 179.197 34.1997C178.018 34.4523 176.797 34.5801 175.491 34.5801C173.047 34.5801 171.321 33.904 170.352 32.601C169.342 31.2951 168.837 28.9774 168.837 25.6509C168.837 22.4061 169.51 20.0914 170.773 18.7855C172.079 17.4394 174.27 16.7648 177.427 16.7648C178.188 16.7648 178.861 16.8064 179.494 16.8495C180.082 16.8911 180.757 16.9342 181.43 17.0174V20.5965C180.544 20.5118 179.746 20.4717 179.07 20.4286C178.397 20.4286 177.852 20.3885 177.429 20.3885C175.534 20.3885 174.272 20.7258 173.723 21.3988C173.178 22.0718 172.882 23.5055 172.882 25.6523C172.882 27.7591 173.092 29.1468 173.555 29.8228C174.02 30.4958 174.946 30.833 176.378 30.833C177.304 30.833 178.314 30.7484 179.323 30.5805C180.29 30.4096 181.174 30.157 181.892 29.9045ZM188.629 34.2428H184.587V11.2053H188.629V18.4066C189.598 17.9014 190.568 17.4794 191.534 17.1867C192.503 16.9327 193.428 16.7648 194.314 16.7648C196.253 16.7648 197.683 17.2715 198.652 18.1971C199.621 19.1227 200.086 20.5133 200.086 22.4076V34.2443H196.085V22.9142C196.085 22.0302 195.832 21.3973 195.369 20.9768C194.864 20.5965 194.106 20.3885 193.094 20.3885C192.381 20.3885 191.62 20.4732 190.822 20.6411C190.062 20.8089 189.305 21.0184 188.631 21.2725V34.2428H188.629ZM207.792 34.5801C206.023 34.5801 204.717 34.115 203.916 33.2741C203.075 32.3886 202.695 31.0425 202.695 29.1884C202.695 27.2941 203.16 25.945 204.169 25.1873C205.137 24.388 206.824 24.0092 209.223 24.0092C209.896 24.0092 210.569 24.0493 211.287 24.0939C211.96 24.1786 212.593 24.2618 213.098 24.3881V22.9142C213.098 22.0302 212.805 21.3557 212.257 20.9338C211.709 20.5133 210.823 20.3038 209.605 20.3038C208.551 20.3038 207.583 20.3439 206.74 20.4286C205.896 20.5133 205.099 20.5965 204.296 20.7659V17.3963C205.182 17.1868 206.148 17.059 207.161 16.9328C208.214 16.8481 209.435 16.7648 210.823 16.7648C212.93 16.7648 214.488 17.2714 215.542 18.2386C216.595 19.1657 217.1 20.6396 217.1 22.5354V34.2443H213.395L213.227 32.7274H213.142C212.426 33.2756 211.584 33.7377 210.615 34.0764C209.645 34.4107 208.719 34.5801 207.792 34.5801ZM209.728 26.8722C208.465 26.8722 207.621 26.9969 207.159 27.2926C206.694 27.5853 206.443 28.1336 206.443 28.9344C206.443 29.7352 206.656 30.2804 207.032 30.6177C207.412 30.9579 208.085 31.1257 209.01 31.1257C209.643 31.1257 210.36 31.0411 211.117 30.8301C211.875 30.6622 212.551 30.4097 213.096 30.114V27.1664C212.551 27.0416 211.958 26.9985 211.454 26.9569C210.909 26.9123 210.318 26.8722 209.728 26.8722ZM224.931 14.6997H220.681V11.2053H224.931V14.6997ZM224.847 34.2428H220.804V17.1422H224.847V34.2428ZM232.638 34.2428H228.595V17.1422H232.093L232.26 18.8686H232.345C233.186 18.154 234.028 17.6058 234.957 17.27C235.923 16.9313 237.021 16.7634 238.282 16.7634C240.176 16.7634 241.61 17.27 242.62 18.1956C243.631 19.1643 244.094 20.5549 244.094 22.4061V34.2428H240.093V22.9127C240.093 22.0703 239.8 21.4389 239.295 21.0169C238.747 20.5965 237.946 20.3871 236.851 20.3871C236.094 20.3871 235.377 20.4717 234.66 20.6797C233.944 20.8921 233.269 21.1863 232.638 21.5652V34.2428Z" fill="white"/>
<path d="M62.4951 49.2767C62.4951 50.4147 61.5294 51.3835 60.3913 51.3835C60.1789 51.3835 59.9709 51.3403 59.803 51.2958C59.4226 51.2111 59.0869 51.0031 58.8343 50.7074C52.0535 43.5924 43.8835 37.7803 34.7449 33.7778C33.6069 33.2726 32.4272 32.8091 31.249 32.344C30.0694 32.8091 28.8897 33.2726 27.7101 33.7778C18.6561 37.7788 10.5278 43.5077 3.74696 50.6227C3.36811 51.0878 2.77828 51.3835 2.14685 51.3835C0.967194 51.3835 0 50.4147 0 49.2767C0 35.8414 3.36959 23.6719 8.84297 14.8259C14.5288 5.68732 22.4462 0 31.249 0C40.092 0 47.9663 5.68583 53.6536 14.8259C59.1255 23.6719 62.4951 35.8414 62.4951 49.2767ZM25.0997 30.3249C22.2783 29.5241 19.3722 28.8912 16.4647 28.4708C13.3061 32.2608 10.5679 36.3466 8.25314 40.7279C13.3907 36.5991 19.035 33.0616 25.0997 30.3249ZM31.2475 27.8408C34.9529 26.5349 38.8277 25.4815 42.7856 24.7223C39.2912 21.0155 35.4165 17.6904 31.2475 14.7413C27.0771 17.6889 23.2024 21.0155 19.7065 24.7223C23.6674 25.4815 27.5407 26.5349 31.2475 27.8408ZM47.7969 23.9245C49.608 23.712 51.4622 23.5442 53.3163 23.4595C52.3476 21.1433 51.2497 18.9964 50.0285 17.0575C47.7969 13.4353 45.2296 10.4877 42.3666 8.29775C39.8394 9.47889 37.3954 10.8249 35.0376 12.2571C39.0371 15.1632 42.7009 18.4482 46.0705 22.0287C46.6589 22.6602 47.2086 23.2916 47.7969 23.9245ZM54.915 27.6299C53.609 27.67 52.3031 27.7576 50.9971 27.8423C53.3163 30.8746 55.4201 34.1165 57.3144 37.4445C56.7261 33.9872 55.9253 30.7024 54.915 27.6299ZM46.0705 28.4307C43.1229 28.8928 40.2183 29.5241 37.3954 30.3249C43.4586 33.1047 49.1459 36.5991 54.2419 40.7279C51.9257 36.3896 49.1875 32.2609 46.0705 28.4307ZM11.495 27.8408C10.189 27.7561 8.92617 27.67 7.57714 27.6284C6.56686 30.7008 5.76605 33.9858 5.17771 37.4416C7.07348 34.115 9.18022 30.8732 11.495 27.8408ZM14.6967 23.9245C15.285 23.2916 15.8347 22.6601 16.4231 22.0302C19.7927 18.4496 23.4995 15.1647 27.4575 12.2587C25.0997 10.8265 22.6571 9.48034 20.1285 8.2992C17.2655 10.4906 14.6967 13.4383 12.4651 17.059C11.2439 18.9978 10.1474 21.1447 9.18022 23.4609C11.0329 23.5441 12.8856 23.712 14.6967 23.9245ZM31.2475 9.64681C33.4375 8.21309 35.7106 6.9086 38.0269 5.72894C35.8785 4.76026 33.6039 4.25511 31.2475 4.25511C28.9298 4.25511 26.6151 4.76026 24.4667 5.72894C26.783 6.9086 29.0576 8.21309 31.2475 9.64681Z" fill="#52E8CD"/>
</svg>
