<svg width="1092" height="1030" viewBox="0 0 1092 1030" fill="none" xmlns="http://www.w3.org/2000/svg">
<g filter="url(#filter0_d_468_38037)">
<g filter="url(#filter1_d_468_38037)">
<rect x="48" width="1000" height="1000" rx="60" fill="#1A1C21"/>
</g>
<rect x="72" y="24" width="952" height="952" rx="57.12" fill="#3E4D53" fill-opacity="0.8"/>
<circle opacity="0.6" cx="208" cy="160" r="112" fill="#1A1C21"/>
<g clip-path="url(#clip0_468_38037)">
<path d="M316.343 472.482C319.457 472.482 321.982 469.957 321.982 466.843C321.982 463.728 319.457 461.203 316.343 461.203C313.228 461.203 310.703 463.728 310.703 466.843C310.703 469.957 313.228 472.482 316.343 472.482Z" fill="#52E8CD"/>
<path d="M365.221 548.649L362.406 551.445L359.61 548.63L357.734 550.494L360.529 553.308L357.715 556.104L359.579 557.981L362.393 555.185L365.189 558L367.066 556.136L364.27 553.321L367.084 550.525L365.221 548.649Z" fill="#E6E6E6"/>
<path d="M387.777 385.102L384.963 387.898L382.167 385.083L380.29 386.947L383.086 389.761L380.271 392.557L382.135 394.434L384.95 391.638L387.746 394.453L389.622 392.589L386.826 389.774L389.641 386.978L387.777 385.102Z" fill="#E6E6E6"/>
<path d="M458.673 74.7491C452.583 78.8066 446.35 69.1493 452.557 65.272C458.646 61.2147 464.879 70.872 458.673 74.7491Z" fill="#E6E6E6"/>
<path d="M105.899 494.461L102.025 493.611L102.873 489.735L100.29 489.169L99.4404 493.045L95.5661 492.196L95 494.779L98.8743 495.629L98.026 499.504L100.609 500.07L101.459 496.194L105.333 497.044L105.899 494.461Z" fill="#E6E6E6"/>
<path d="M698.792 29.2919L694.917 28.442L695.766 24.5661L693.183 24L692.333 27.8759L688.459 27.0275L687.893 29.6104L691.767 30.4603L690.919 34.3346L693.501 34.9007L694.351 31.0248L698.226 31.8747L698.792 29.2919Z" fill="#E6E6E6"/>
<path d="M1001.55 280.01L997.671 279.16L998.52 275.284L995.937 274.718L995.087 278.594L991.213 277.745L990.646 280.328L994.521 281.178L993.672 285.052L996.255 285.619L997.105 281.743L1000.98 282.593L1001.55 280.01Z" fill="#E6E6E6"/>
<path d="M269.739 90.4387L265.864 89.5888L266.713 85.7145L264.13 85.1484L263.28 89.0227L259.404 88.1744L258.838 90.7573L262.714 91.6072L261.865 95.4831L264.448 96.0476L265.298 92.1733L269.173 93.0216L269.739 90.4387Z" fill="#E6E6E6"/>
<path d="M636.954 219.143C640.069 219.143 642.594 216.618 642.594 213.504C642.594 210.389 640.069 207.864 636.954 207.864C633.839 207.864 631.314 210.389 631.314 213.504C631.314 216.618 633.839 219.143 636.954 219.143Z" fill="#52E8CD"/>
<path d="M594.719 298.933L590.845 298.083L591.694 294.207L589.111 293.641L588.261 297.517L584.386 296.668L583.82 299.251L587.695 300.101L586.846 303.975L589.429 304.541L590.279 300.665L594.153 301.515L594.719 298.933Z" fill="#E6E6E6"/>
<path d="M848.899 63.2919L845.025 62.442L845.873 58.5661L843.29 58L842.44 61.8759L838.566 61.0276L838 63.6104L841.874 64.4603L841.026 68.3346L843.609 68.9007L844.459 65.0248L848.333 65.8748L848.899 63.2919Z" fill="#E6E6E6"/>
<path d="M744.368 229.201L740.493 228.352L741.342 224.477L738.759 223.911L737.909 227.785L734.033 226.937L733.467 229.52L737.343 230.37L736.494 234.246L739.077 234.81L739.927 230.936L743.801 231.784L744.368 229.201Z" fill="#E6E6E6"/>
<path d="M708.77 910.102L711.584 912.898L714.38 910.083L716.256 911.947L713.461 914.761L716.275 917.557L714.412 919.434L711.597 916.638L708.801 919.453L706.925 917.589L709.72 914.774L706.906 911.978L708.77 910.102Z" fill="#E6E6E6"/>
<path d="M637.874 599.749C643.964 603.807 650.197 594.149 643.99 590.272C637.901 586.215 631.668 595.872 637.874 599.749Z" fill="#E6E6E6"/>
<path d="M397.755 554.292L401.629 553.442L400.781 549.566L403.364 549L404.214 552.876L408.088 552.028L408.654 554.61L404.78 555.46L405.628 559.335L403.045 559.901L402.196 556.025L398.321 556.875L397.755 554.292Z" fill="#E6E6E6"/>
<path d="M95.0013 805.01L98.8756 804.16L98.0272 800.284L100.61 799.718L101.46 803.594L105.334 802.745L105.9 805.328L102.026 806.178L102.874 810.052L100.292 810.619L99.4416 806.743L95.5674 807.593L95.0013 805.01Z" fill="#E6E6E6"/>
<path d="M826.808 615.439L830.683 614.589L829.834 610.715L832.417 610.148L833.267 614.023L837.143 613.174L837.709 615.757L833.833 616.607L834.681 620.483L832.099 621.048L831.249 617.173L827.374 618.022L826.808 615.439Z" fill="#E6E6E6"/>
<path d="M459.593 744.143C456.478 744.143 453.953 741.618 453.953 738.504C453.953 735.389 456.478 732.864 459.593 732.864C462.708 732.864 465.232 735.389 465.232 738.504C465.232 741.618 462.708 744.143 459.593 744.143Z" fill="#52E8CD"/>
<path d="M501.827 823.933L505.702 823.083L504.853 819.207L507.436 818.641L508.286 822.517L512.16 821.668L512.727 824.251L508.852 825.101L509.701 828.975L507.118 829.541L506.268 825.665L502.393 826.515L501.827 823.933Z" fill="#E6E6E6"/>
<path d="M352.179 754.201L356.054 753.352L355.205 749.477L357.788 748.911L358.638 752.785L362.514 751.937L363.08 754.52L359.204 755.37L360.053 759.246L357.47 759.81L356.62 755.936L352.745 756.784L352.179 754.201Z" fill="#E6E6E6"/>
</g>
<g opacity="0.14">
<g filter="url(#filter2_f_468_38037)">
<path d="M902.442 251.777C917.26 284.873 947.352 901.038 207.665 638.537C141.002 479.28 643.073 314.34 902.442 251.777Z" fill="#37E7FF"/>
<path d="M187.974 452.199C273.88 585.05 500.793 685.596 796.805 365.894C1133.93 1.79234 453.894 212.444 187.974 452.199Z" fill="#3B37FF"/>
</g>
<g filter="url(#filter3_f_468_38037)">
<path d="M739.856 333.619C749.386 369.229 742.912 946.688 201.843 447.862C159.459 278.128 542.858 300.978 739.856 333.619Z" fill="#37E7FF"/>
<path d="M127.304 732.864C263.124 856.174 570.431 900.494 878.673 451.576C1229.72 -59.6847 413.96 382.91 127.304 732.864Z" fill="#3B37FF" fill-opacity="0.4"/>
</g>
</g>
<path d="M822.745 707.468C822.745 717.479 814.224 726 804.213 726C802.37 726 800.514 725.621 799.037 725.229C795.692 724.484 792.738 722.654 790.516 720.054C730.894 657.465 658.987 606.338 578.637 571.129C568.626 566.686 558.21 562.608 547.86 558.517C537.469 562.608 527.105 566.686 516.742 571.129C437.097 606.325 365.609 656.72 305.948 719.309C302.628 723.399 297.426 726 291.885 726C281.495 726 273 717.479 273 707.468C273 589.283 302.641 482.232 350.775 404.418C400.804 324.029 470.437 274 547.86 274C625.687 274 694.967 324.016 744.97 404.418C793.104 482.232 822.745 589.283 822.745 707.468ZM493.766 540.756C468.934 533.712 443.384 528.145 417.794 524.446C390.022 557.786 365.922 593.726 345.561 632.267C390.767 595.948 440.417 564.83 493.766 540.756ZM547.833 518.905C580.454 507.417 614.539 498.151 649.381 491.472C618.616 458.864 584.545 429.616 547.833 403.673C511.174 429.602 477.076 458.864 446.338 491.472C481.154 498.151 515.239 507.417 547.833 518.905ZM693.451 484.441C709.356 482.572 725.667 481.095 741.977 480.35C733.456 459.975 723.824 441.09 713.055 424.035C693.451 392.172 670.841 366.243 645.67 346.979C623.439 357.369 601.94 369.209 581.186 381.808C616.381 407.372 648.623 436.268 678.264 467.765C683.427 473.332 688.249 478.887 693.451 484.441ZM756.066 517.049C744.591 517.402 733.103 518.173 721.615 518.918C741.99 545.592 760.509 574.109 777.173 603.384C771.997 572.972 764.953 544.076 756.066 517.049ZM678.264 524.093C652.335 528.158 626.759 533.712 601.94 540.756C655.289 565.209 705.292 595.948 750.119 632.267C729.757 594.105 705.684 557.786 678.264 524.093ZM374.104 518.905C362.616 518.16 351.494 517.402 339.64 517.036C330.753 544.063 323.708 572.959 318.533 603.358C335.196 574.096 353.729 545.579 374.104 518.905ZM402.255 484.441C407.43 478.873 412.266 473.319 417.441 467.778C447.082 436.281 479.677 407.385 514.494 381.821C493.766 369.223 472.28 357.382 450.036 346.992C424.838 366.269 402.255 392.198 382.625 424.048C371.882 441.103 362.224 459.989 353.729 480.364C370.013 481.109 386.323 482.585 402.255 484.441ZM547.833 358.858C567.11 346.247 587.119 334.772 607.481 324.395C588.596 315.874 568.6 311.43 547.833 311.43C527.432 311.43 507.097 315.874 488.198 324.395C508.573 334.772 528.556 346.247 547.833 358.858Z" fill="url(#paint0_linear_468_38037)"/>
</g>
<defs>
<filter id="filter0_d_468_38037" x="44" y="0" width="1008" height="1008" filterUnits="userSpaceOnUse" color-interpolation-filters="sRGB">
<feFlood flood-opacity="0" result="BackgroundImageFix"/>
<feColorMatrix in="SourceAlpha" type="matrix" values="0 0 0 0 0 0 0 0 0 0 0 0 0 0 0 0 0 0 127 0" result="hardAlpha"/>
<feOffset dy="4"/>
<feGaussianBlur stdDeviation="2"/>
<feComposite in2="hardAlpha" operator="out"/>
<feColorMatrix type="matrix" values="0 0 0 0 0 0 0 0 0 0 0 0 0 0 0 0 0 0 0.25 0"/>
<feBlend mode="normal" in2="BackgroundImageFix" result="effect1_dropShadow_468_38037"/>
<feBlend mode="normal" in="SourceGraphic" in2="effect1_dropShadow_468_38037" result="shape"/>
</filter>
<filter id="filter1_d_468_38037" x="33" y="0" width="1030" height="1030" filterUnits="userSpaceOnUse" color-interpolation-filters="sRGB">
<feFlood flood-opacity="0" result="BackgroundImageFix"/>
<feColorMatrix in="SourceAlpha" type="matrix" values="0 0 0 0 0 0 0 0 0 0 0 0 0 0 0 0 0 0 127 0" result="hardAlpha"/>
<feOffset dy="15"/>
<feGaussianBlur stdDeviation="7.5"/>
<feComposite in2="hardAlpha" operator="out"/>
<feColorMatrix type="matrix" values="0 0 0 0 0 0 0 0 0 0 0 0 0 0 0 0 0 0 0.25 0"/>
<feBlend mode="normal" in2="BackgroundImageFix" result="effect1_dropShadow_468_38037"/>
<feBlend mode="normal" in="SourceGraphic" in2="effect1_dropShadow_468_38037" result="shape"/>
</filter>
<filter id="filter2_f_468_38037" x="61.1457" y="42.9553" width="973.197" height="787.33" filterUnits="userSpaceOnUse" color-interpolation-filters="sRGB">
<feFlood flood-opacity="0" result="BackgroundImageFix"/>
<feBlend mode="normal" in="SourceGraphic" in2="BackgroundImageFix" result="shape"/>
<feGaussianBlur stdDeviation="63.4144" result="effect1_foregroundBlur_468_38037"/>
</filter>
<filter id="filter3_f_468_38037" x="0.475815" y="92.593" width="1091.24" height="850.762" filterUnits="userSpaceOnUse" color-interpolation-filters="sRGB">
<feFlood flood-opacity="0" result="BackgroundImageFix"/>
<feBlend mode="normal" in="SourceGraphic" in2="BackgroundImageFix" result="shape"/>
<feGaussianBlur stdDeviation="63.4144" result="effect1_foregroundBlur_468_38037"/>
</filter>
<linearGradient id="paint0_linear_468_38037" x1="273" y1="274" x2="716.474" y2="813.376" gradientUnits="userSpaceOnUse">
<stop offset="0.494792" stop-color="#52E8CD"/>
<stop offset="1" stop-color="#56E9F2"/>
</linearGradient>
<clipPath id="clip0_468_38037">
<rect width="907" height="952" fill="white" transform="translate(95 24)"/>
</clipPath>
</defs>
</svg>
